<svg version="1.1" xmlns="http://www.w3.org/2000/svg" xmlns:xlink="http://www.w3.org/1999/xlink" width="1468" height="956"><defs/><g><g transform="translate(-70,-46) scale(1,1)"><path fill="#ffffff" stroke="none" d="M 208.85527272727276 552.98 C 208.85527272727276 539.736210496 219.2175189271273 529 232 529 C 244.7824810728727 529 255.14472727272724 539.736210496 255.14472727272724 552.98 C 255.14472727272724 566.223789504 244.7824810728727 576.96 232 576.96 C 219.2175189271273 576.96 208.85527272727276 566.223789504 208.85527272727276 552.98 Z"/></g><g transform="translate(-70,-46) scale(1,1)"><path fill="none" stroke="#000000" d="M 208.85527272727276 552.98 C 208.85527272727276 539.736210496 219.2175189271273 529 232 529 C 244.7824810728727 529 255.14472727272724 539.736210496 255.14472727272724 552.98 C 255.14472727272724 566.223789504 244.7824810728727 576.96 232 576.96 C 219.2175189271273 576.96 208.85527272727276 566.223789504 208.85527272727276 552.98 Z" stroke-miterlimit="10"/></g><g transform="translate(-70,-46) scale(1,1)"><path fill="none" stroke="#000000" d="M 232 576.96 L 232 623.04" stroke-miterlimit="10"/></g><g transform="translate(-70,-46) scale(1,1)"><path fill="none" stroke="#000000" d="M 207.4938181818182 594.24 L 256.5061818181818 594.24" stroke-miterlimit="10"/></g><g transform="translate(-70,-46) scale(1,1)"><path fill="none" stroke="#000000" d="M 232 623.04 L 197.9636363636364 671" stroke-miterlimit="10"/></g><g transform="translate(-70,-46) scale(1,1)"><path fill="none" stroke="#000000" d="M 232 623.04 L 266.0363636363636 671" stroke-miterlimit="10"/></g><g transform="translate(-70,-46) scale(1,1)"><g><path fill="none" stroke="none"/><text fill="#000000" stroke="none" font-family="Arial" font-size="20px" font-style="normal" font-weight="bold" text-decoration="none" x="210.88671875" y="698.5">User</text></g></g><g transform="translate(-70,-46) scale(1,1)"><path fill="#C0C0C0" stroke="none" d="M 167 243 C 167 223.1177472 202.817216 207 247 207 C 291.18278399999997 207 327 223.1177472 327 243 C 327 262.8822528 291.18278399999997 279 247 279 C 202.817216 279 167 262.8822528 167 243 Z" opacity="0.2"/></g><g transform="translate(-70,-46) scale(1,1)"><path fill="#ffffff" stroke="none" d="M 160 236 C 160 216.1177472 195.817216 200 240 200 C 284.18278399999997 200 320 216.1177472 320 236 C 320 255.8822528 284.18278399999997 272 240 272 C 195.817216 272 160 255.8822528 160 236 Z"/></g><g transform="translate(-70,-46) scale(1,1)"><path fill="none" stroke="#000000" d="M 160 236 C 160 216.1177472 195.817216 200 240 200 C 284.18278399999997 200 320 216.1177472 320 236 C 320 255.8822528 284.18278399999997 272 240 272 C 195.817216 272 160 255.8822528 160 236 Z" stroke-miterlimit="10"/></g><g transform="translate(-70,-46) scale(1,1)"><g><path fill="none" stroke="none"/><text fill="#000000" stroke="none" font-family="Arial" font-size="20px" font-style="normal" font-weight="bold" text-decoration="none" x="221.6552734375" y="236.5">Live</text><text fill="#000000" stroke="none" font-family="Arial" font-size="20px" font-style="normal" font-weight="bold" text-decoration="none" x="206.6552734375" y="256.5">camera</text></g></g><g transform="translate(-70,-46) scale(1,1)"><path fill="#C0C0C0" stroke="none" d="M 359 387 C 359 362.6994688 391.2354944 343 431 343 C 470.7645056 343 503 362.6994688 503 387 C 503 411.3005312 470.7645056 431 431 431 C 391.2354944 431 359 411.3005312 359 387 Z" opacity="0.2"/></g><g transform="translate(-70,-46) scale(1,1)"><path fill="#ffffff" stroke="none" d="M 352 380 C 352 355.6994688 384.2354944 336 424 336 C 463.7645056 336 496 355.6994688 496 380 C 496 404.3005312 463.7645056 424 424 424 C 384.2354944 424 352 404.3005312 352 380 Z"/></g><g transform="translate(-70,-46) scale(1,1)"><path fill="none" stroke="#000000" d="M 352 380 C 352 355.6994688 384.2354944 336 424 336 C 463.7645056 336 496 355.6994688 496 380 C 496 404.3005312 463.7645056 424 424 424 C 384.2354944 424 352 404.3005312 352 380 Z" stroke-miterlimit="10"/></g><g transform="translate(-70,-46) scale(1,1)"><g><path fill="none" stroke="none"/><text fill="#000000" stroke="none" font-family="Arial" font-size="20px" font-style="normal" font-weight="bold" text-decoration="none" x="401.75390625" y="380.5">Load</text><text fill="#000000" stroke="none" font-family="Arial" font-size="20px" font-style="normal" font-weight="bold" text-decoration="none" x="398.9755859375" y="400.5">photo</text></g></g><g transform="translate(-70,-46) scale(1,1)"><path fill="#C0C0C0" stroke="none" d="M 407 937 C 407 909.38576 433.862912 887 467 887 C 500.137088 887 527 909.38576 527 937 C 527 964.61424 500.137088 987 467 987 C 433.862912 987 407 964.61424 407 937 Z" opacity="0.2"/></g><g transform="translate(-70,-46) scale(1,1)"><path fill="#ffffff" stroke="none" d="M 400 930 C 400 902.38576 426.862912 880 460 880 C 493.137088 880 520 902.38576 520 930 C 520 957.61424 493.137088 980 460 980 C 426.862912 980 400 957.61424 400 930 Z"/></g><g transform="translate(-70,-46) scale(1,1)"><path fill="none" stroke="#000000" d="M 400 930 C 400 902.38576 426.862912 880 460 880 C 493.137088 880 520 902.38576 520 930 C 520 957.61424 493.137088 980 460 980 C 426.862912 980 400 957.61424 400 930 Z" stroke-miterlimit="10"/></g><g transform="translate(-70,-46) scale(1,1)"><g><path fill="none" stroke="none"/><text fill="#000000" stroke="none" font-family="Arial" font-size="20px" font-style="normal" font-weight="bold" text-decoration="none" x="428.876953125" y="930.5">How to</text><text fill="#000000" stroke="none" font-family="Arial" font-size="20px" font-style="normal" font-weight="bold" text-decoration="none" x="443.876953125" y="950.5">use</text></g></g><g transform="translate(-70,-46) scale(1,1)"><path fill="#C0C0C0" stroke="none" d="M 759 355 C 759 330.6994688 796.6080768 311 843 311 C 889.3919232 311 927 330.6994688 927 355 C 927 379.3005312 889.3919232 399 843 399 C 796.6080768 399 759 379.3005312 759 355 Z" opacity="0.2"/></g><g transform="translate(-70,-46) scale(1,1)"><path fill="#ffffff" stroke="none" d="M 752 348 C 752 323.6994688 789.6080768 304 836 304 C 882.3919232 304 920 323.6994688 920 348 C 920 372.3005312 882.3919232 392 836 392 C 789.6080768 392 752 372.3005312 752 348 Z"/></g><g transform="translate(-70,-46) scale(1,1)"><path fill="none" stroke="#000000" d="M 752 348 C 752 323.6994688 789.6080768 304 836 304 C 882.3919232 304 920 323.6994688 920 348 C 920 372.3005312 882.3919232 392 836 392 C 789.6080768 392 752 372.3005312 752 348 Z" stroke-miterlimit="10"/></g><g transform="translate(-70,-46) scale(1,1)"><g><path fill="none" stroke="none"/><text fill="#000000" stroke="none" font-family="Arial" font-size="20px" font-style="normal" font-weight="bold" text-decoration="none" x="816.546875" y="358.5">Map</text></g></g><g transform="translate(-70,-46) scale(1,1)"><path fill="#C0C0C0" stroke="none" d="M 623 241 C 623 213.38576 665.9806592 191 719 191 C 772.0193408 191 815 213.38576 815 241 C 815 268.61424 772.0193408 291 719 291 C 665.9806592 291 623 268.61424 623 241 Z" opacity="0.2"/></g><g transform="translate(-70,-46) scale(1,1)"><path fill="#ffffff" stroke="none" d="M 616 234 C 616 206.38576 658.9806592 184 712 184 C 765.0193408 184 808 206.38576 808 234 C 808 261.61424 765.0193408 284 712 284 C 658.9806592 284 616 261.61424 616 234 Z"/></g><g transform="translate(-70,-46) scale(1,1)"><path fill="none" stroke="#000000" d="M 616 234 C 616 206.38576 658.9806592 184 712 184 C 765.0193408 184 808 206.38576 808 234 C 808 261.61424 765.0193408 284 712 284 C 658.9806592 284 616 261.61424 616 234 Z" stroke-miterlimit="10"/></g><g transform="translate(-70,-46) scale(1,1)"><g><path fill="none" stroke="none"/><text fill="#000000" stroke="none" font-family="Arial" font-size="20px" font-style="normal" font-weight="bold" text-decoration="none" x="681.9853515625" y="244.5">Report</text></g></g><g transform="translate(-70,-46) scale(1,1)"><path fill="#C0C0C0" stroke="none" d="M 343 99 C 343 79.1177472 371.6537728 63 407 63 C 442.3462272 63 471 79.1177472 471 99 C 471 118.8822528 442.3462272 135 407 135 C 371.6537728 135 343 118.8822528 343 99 Z" opacity="0.2"/></g><g transform="translate(-70,-46) scale(1,1)"><path fill="#ffffff" stroke="none" d="M 336 92 C 336 72.1177472 364.6537728 56 400 56 C 435.3462272 56 464 72.1177472 464 92 C 464 111.8822528 435.3462272 128 400 128 C 364.6537728 128 336 111.8822528 336 92 Z"/></g><g transform="translate(-70,-46) scale(1,1)"><path fill="none" stroke="#000000" d="M 336 92 C 336 72.1177472 364.6537728 56 400 56 C 435.3462272 56 464 72.1177472 464 92 C 464 111.8822528 435.3462272 128 400 128 C 364.6537728 128 336 111.8822528 336 92 Z" stroke-miterlimit="10"/></g><g transform="translate(-70,-46) scale(1,1)"><g><path fill="none" stroke="none"/><text fill="#000000" stroke="none" font-family="Arial" font-size="20px" font-style="normal" font-weight="bold" text-decoration="none" x="364.970703125" y="92.5">Change</text><text fill="#000000" stroke="none" font-family="Arial" font-size="20px" font-style="normal" font-weight="bold" text-decoration="none" x="366.6552734375" y="112.5">camera</text></g></g><g transform="translate(-70,-46) scale(1,1)"><path fill="#C0C0C0" stroke="none" d="M 87 99 C 87 79.1177472 113.63905439999999 63 146.5 63 C 179.3609456 63 206 79.1177472 206 99 C 206 118.8822528 179.3609456 135 146.5 135 C 113.63905439999999 135 87 118.8822528 87 99 Z" opacity="0.2"/></g><g transform="translate(-70,-46) scale(1,1)"><path fill="#ffffff" stroke="none" d="M 80 92 C 80 72.1177472 106.63905439999999 56 139.5 56 C 172.3609456 56 199 72.1177472 199 92 C 199 111.8822528 172.3609456 128 139.5 128 C 106.63905439999999 128 80 111.8822528 80 92 Z"/></g><g transform="translate(-70,-46) scale(1,1)"><path fill="none" stroke="#000000" d="M 80 92 C 80 72.1177472 106.63905439999999 56 139.5 56 C 172.3609456 56 199 72.1177472 199 92 C 199 111.8822528 172.3609456 128 139.5 128 C 106.63905439999999 128 80 111.8822528 80 92 Z" stroke-miterlimit="10"/></g><g transform="translate(-70,-46) scale(1,1)"><g><path fill="none" stroke="none"/><text fill="#000000" stroke="none" font-family="Arial" font-size="20px" font-style="normal" font-weight="bold" text-decoration="none" x="118.376953125" y="92.5">Take</text><text fill="#000000" stroke="none" font-family="Arial" font-size="20px" font-style="normal" font-weight="bold" text-decoration="none" x="114.4755859375" y="112.5">photo</text></g></g><g transform="translate(-70,-46) scale(1,1)"><path fill="none" stroke="#000000" d="M 214 199 L 165 129" stroke-miterlimit="10" stroke-dasharray="3"/></g><g transform="translate(-70,-46) scale(1,1)"><path fill="none" stroke="#000000" d="M 174.27648266457538 134.91158772021802 L 165 129 L 167.37934003313543 139.73958756222598" stroke-miterlimit="10"/></g><g transform="translate(-70,-46) scale(1,1)"><g><path fill="none" stroke="none"/><text fill="#000000" stroke="none" font-family="Arial" font-size="20px" font-style="normal" font-weight="normal" text-decoration="none" x="190.5" y="160.5">«include»</text></g></g><g transform="translate(-70,-46) scale(1,1)"><path fill="none" stroke="#000000" d="M 281 199 L 359 129" stroke-miterlimit="10" stroke-dasharray="3"/></g><g transform="translate(-70,-46) scale(1,1)"><path fill="none" stroke="#000000" d="M 354.24808557294295 138.9206506479125 L 359 129 L 348.6249297380881 132.6548484319314" stroke-miterlimit="10"/></g><g transform="translate(-70,-46) scale(1,1)"><g><path fill="none" stroke="none"/><text fill="#000000" stroke="none" font-family="Arial" font-size="20px" font-style="normal" font-weight="normal" text-decoration="none" x="331.5" y="176.5">«include»</text></g></g><g transform="translate(-70,-46) scale(1,1)"><path fill="#C0C0C0" stroke="none" d="M 631 937 C 631 909.38576 658.0867696 887 691.5 887 C 724.9132304 887 752 909.38576 752 937 C 752 964.61424 724.9132304 987 691.5 987 C 658.0867696 987 631 964.61424 631 937 Z" opacity="0.2"/></g><g transform="translate(-70,-46) scale(1,1)"><path fill="#ffffff" stroke="none" d="M 624 930 C 624 902.38576 651.0867696 880 684.5 880 C 717.9132304 880 745 902.38576 745 930 C 745 957.61424 717.9132304 980 684.5 980 C 651.0867696 980 624 957.61424 624 930 Z"/></g><g transform="translate(-70,-46) scale(1,1)"><path fill="none" stroke="#000000" d="M 624 930 C 624 902.38576 651.0867696 880 684.5 880 C 717.9132304 880 745 902.38576 745 930 C 745 957.61424 717.9132304 980 684.5 980 C 651.0867696 980 624 957.61424 624 930 Z" stroke-miterlimit="10"/></g><g transform="translate(-70,-46) scale(1,1)"><g><path fill="none" stroke="none"/><text fill="#000000" stroke="none" font-family="Arial" font-size="20px" font-style="normal" font-weight="bold" text-decoration="none" x="648.3623046875" y="930.5">Manage</text><text fill="#000000" stroke="none" font-family="Arial" font-size="20px" font-style="normal" font-weight="bold" text-decoration="none" x="649.4755859375" y="950.5">account</text></g></g><g transform="translate(-70,-46) scale(1,1)"><path fill="#C0C0C0" stroke="none" d="M 711 827 C 711 798.2811904 739.6537728 775 775 775 C 810.3462272 775 839 798.2811904 839 827 C 839 855.7188096 810.3462272 879 775 879 C 739.6537728 879 711 855.7188096 711 827 Z" opacity="0.2"/></g><g transform="translate(-70,-46) scale(1,1)"><path fill="#ffffff" stroke="none" d="M 704 820 C 704 791.2811904 732.6537728 768 768 768 C 803.3462272 768 832 791.2811904 832 820 C 832 848.7188096 803.3462272 872 768 872 C 732.6537728 872 704 848.7188096 704 820 Z"/></g><g transform="translate(-70,-46) scale(1,1)"><path fill="none" stroke="#000000" d="M 704 820 C 704 791.2811904 732.6537728 768 768 768 C 803.3462272 768 832 791.2811904 832 820 C 832 848.7188096 803.3462272 872 768 872 C 732.6537728 872 704 848.7188096 704 820 Z" stroke-miterlimit="10"/></g><g transform="translate(-70,-46) scale(1,1)"><g><path fill="none" stroke="none"/><text fill="#000000" stroke="none" font-family="Arial" font-size="20px" font-style="normal" font-weight="bold" text-decoration="none" x="731.8623046875" y="820.5">Manage</text><text fill="#000000" stroke="none" font-family="Arial" font-size="20px" font-style="normal" font-weight="bold" text-decoration="none" x="733.537109375" y="840.5">settings</text></g></g><g transform="translate(-70,-46) scale(1,1)"><path fill="#C0C0C0" stroke="none" d="M 215 935 C 215 908.4903296 241.862912 887 275 887 C 308.137088 887 335 908.4903296 335 935 C 335 961.5096704 308.137088 983 275 983 C 241.862912 983 215 961.5096704 215 935 Z" opacity="0.2"/></g><g transform="translate(-70,-46) scale(1,1)"><path fill="#ffffff" stroke="none" d="M 208 928 C 208 901.4903296 234.862912 880 268 880 C 301.137088 880 328 901.4903296 328 928 C 328 954.5096704 301.137088 976 268 976 C 234.862912 976 208 954.5096704 208 928 Z"/></g><g transform="translate(-70,-46) scale(1,1)"><path fill="none" stroke="#000000" d="M 208 928 C 208 901.4903296 234.862912 880 268 880 C 301.137088 880 328 901.4903296 328 928 C 328 954.5096704 301.137088 976 268 976 C 234.862912 976 208 954.5096704 208 928 Z" stroke-miterlimit="10"/></g><g transform="translate(-70,-46) scale(1,1)"><g><path fill="none" stroke="none"/><text fill="#000000" stroke="none" font-family="Arial" font-size="20px" font-style="normal" font-weight="bold" text-decoration="none" x="241.8671875" y="938.5">About</text></g></g><g transform="translate(-70,-46) scale(1,1)"><path fill="#C0C0C0" stroke="none" d="M 1399 244 C 1399 223.5654624 1429.4446336 207 1467 207 C 1504.5553664 207 1535 223.5654624 1535 244 C 1535 264.4345376 1504.5553664 281 1467 281 C 1429.4446336 281 1399 264.4345376 1399 244 Z" opacity="0.2"/></g><g transform="translate(-70,-46) scale(1,1)"><path fill="#ffffff" stroke="none" d="M 1392 237 C 1392 216.5654624 1422.4446336 200 1460 200 C 1497.5553664 200 1528 216.5654624 1528 237 C 1528 257.4345376 1497.5553664 274 1460 274 C 1422.4446336 274 1392 257.4345376 1392 237 Z"/></g><g transform="translate(-70,-46) scale(1,1)"><path fill="none" stroke="#000000" d="M 1392 237 C 1392 216.5654624 1422.4446336 200 1460 200 C 1497.5553664 200 1528 216.5654624 1528 237 C 1528 257.4345376 1497.5553664 274 1460 274 C 1422.4446336 274 1392 257.4345376 1392 237 Z" stroke-miterlimit="10"/></g><g transform="translate(-70,-46) scale(1,1)"><g><path fill="none" stroke="none"/><text fill="#000000" stroke="none" font-family="Arial" font-size="20px" font-style="normal" font-weight="bold" text-decoration="none" x="1436.6455078125" y="247.5">Send</text></g></g><g transform="translate(-70,-46) scale(1,1)"><path fill="#C0C0C0" stroke="none" d="M 1295 359 C 1295 341.3268864 1325.4446336 327 1363 327 C 1400.5553664 327 1431 341.3268864 1431 359 C 1431 376.6731136 1400.5553664 391 1363 391 C 1325.4446336 391 1295 376.6731136 1295 359 Z" opacity="0.2"/></g><g transform="translate(-70,-46) scale(1,1)"><path fill="#ffffff" stroke="none" d="M 1288 352 C 1288 334.3268864 1318.4446336 320 1356 320 C 1393.5553664 320 1424 334.3268864 1424 352 C 1424 369.6731136 1393.5553664 384 1356 384 C 1318.4446336 384 1288 369.6731136 1288 352 Z"/></g><g transform="translate(-70,-46) scale(1,1)"><path fill="none" stroke="#000000" d="M 1288 352 C 1288 334.3268864 1318.4446336 320 1356 320 C 1393.5553664 320 1424 334.3268864 1424 352 C 1424 369.6731136 1393.5553664 384 1356 384 C 1318.4446336 384 1288 369.6731136 1288 352 Z" stroke-miterlimit="10"/></g><g transform="translate(-70,-46) scale(1,1)"><g><path fill="none" stroke="none"/><text fill="#000000" stroke="none" font-family="Arial" font-size="20px" font-style="normal" font-weight="bold" text-decoration="none" x="1320.9853515625" y="362.5">Refresh</text></g></g><g transform="translate(-70,-46) scale(1,1)"><path fill="#C0C0C0" stroke="none" d="M 767 583 C 767 560.908608 806.3989376 543 855 543 C 903.6010624 543 943 560.908608 943 583 C 943 605.091392 903.6010624 623 855 623 C 806.3989376 623 767 605.091392 767 583 Z" opacity="0.2"/></g><g transform="translate(-70,-46) scale(1,1)"><path fill="#ffffff" stroke="none" d="M 760 576 C 760 553.908608 799.3989376 536 848 536 C 896.6010624 536 936 553.908608 936 576 C 936 598.091392 896.6010624 616 848 616 C 799.3989376 616 760 598.091392 760 576 Z"/></g><g transform="translate(-70,-46) scale(1,1)"><path fill="none" stroke="#000000" d="M 760 576 C 760 553.908608 799.3989376 536 848 536 C 896.6010624 536 936 553.908608 936 576 C 936 598.091392 896.6010624 616 848 616 C 799.3989376 616 760 598.091392 760 576 Z" stroke-miterlimit="10"/></g><g transform="translate(-70,-46) scale(1,1)"><g><path fill="none" stroke="none"/><text fill="#000000" stroke="none" font-family="Arial" font-size="20px" font-style="normal" font-weight="bold" text-decoration="none" x="812.9853515625" y="586.5">Reports</text></g></g><g transform="translate(-70,-46) scale(1,1)"><path fill="#C0C0C0" stroke="none" d="M 663 115 C 663 95.1177472 687.4004784 79 717.5 79 C 747.5995216 79 772 95.1177472 772 115 C 772 134.8822528 747.5995216 151 717.5 151 C 687.4004784 151 663 134.8822528 663 115 Z" opacity="0.2"/></g><g transform="translate(-70,-46) scale(1,1)"><path fill="#ffffff" stroke="none" d="M 656 108 C 656 88.1177472 680.4004784 72 710.5 72 C 740.5995216 72 765 88.1177472 765 108 C 765 127.8822528 740.5995216 144 710.5 144 C 680.4004784 144 656 127.8822528 656 108 Z"/></g><g transform="translate(-70,-46) scale(1,1)"><path fill="none" stroke="#000000" d="M 656 108 C 656 88.1177472 680.4004784 72 710.5 72 C 740.5995216 72 765 88.1177472 765 108 C 765 127.8822528 740.5995216 144 710.5 144 C 680.4004784 144 656 127.8822528 656 108 Z" stroke-miterlimit="10"/></g><g transform="translate(-70,-46) scale(1,1)"><g><path fill="none" stroke="none"/><text fill="#000000" stroke="none" font-family="Arial" font-size="20px" font-style="normal" font-weight="bold" text-decoration="none" x="693.2685546875" y="118.5">Edit</text></g></g><g transform="translate(-70,-46) scale(1,1)"><path fill="#C0C0C0" stroke="none" d="M 1167 943 C 1167 912.0720512 1216.6963872 887 1278 887 C 1339.3036128 887 1389 912.0720512 1389 943 C 1389 973.9279488 1339.3036128 999 1278 999 C 1216.6963872 999 1167 973.9279488 1167 943 Z" opacity="0.2"/></g><g transform="translate(-70,-46) scale(1,1)"><path fill="#ffffff" stroke="none" d="M 1160 936 C 1160 905.0720512 1209.6963872 880 1271 880 C 1332.3036128 880 1382 905.0720512 1382 936 C 1382 966.9279488 1332.3036128 992 1271 992 C 1209.6963872 992 1160 966.9279488 1160 936 Z"/></g><g transform="translate(-70,-46) scale(1,1)"><path fill="none" stroke="#000000" d="M 1160 936 C 1160 905.0720512 1209.6963872 880 1271 880 C 1332.3036128 880 1382 905.0720512 1382 936 C 1382 966.9279488 1332.3036128 992 1271 992 C 1209.6963872 992 1160 966.9279488 1160 936 Z" stroke-miterlimit="10"/></g><g transform="translate(-70,-46) scale(1,1)"><g><path fill="none" stroke="none"/><text fill="#000000" stroke="none" font-family="Arial" font-size="20px" font-style="normal" font-weight="bold" text-decoration="none" x="1254.8818359375" y="936.5">API</text><text fill="#000000" stroke="none" font-family="Arial" font-size="20px" font-style="normal" font-weight="bold" text-decoration="none" x="1203.7490234375" y="956.5">communication</text></g></g><g transform="translate(-70,-46) scale(1,1)"><path fill="none" stroke="#000000" d="M 746 931 L 1159 935" stroke-miterlimit="10" stroke-dasharray="3"/></g><g transform="translate(-70,-46) scale(1,1)"><path fill="none" stroke="#000000" d="M 1148.7970335213006 939.1108971082402 L 1159 935 L 1148.878569992696 930.6922564366895" stroke-miterlimit="10"/></g><g transform="translate(-70,-46) scale(1,1)"><g><path fill="none" stroke="none"/><text fill="#000000" stroke="none" font-family="Arial" font-size="20px" font-style="normal" font-weight="normal" text-decoration="none" x="908.5" y="954.5">«include»</text></g></g><g transform="translate(-70,-46) scale(1,1)"><path fill="none" stroke="#000000" d="M 833 835 L 1159 910" stroke-miterlimit="10" stroke-dasharray="3"/></g><g transform="translate(-70,-46) scale(1,1)"><path fill="none" stroke="#000000" d="M 1148.1522525272655 911.8238351810902 L 1159 910 L 1150.0398379771148 903.6191304257457" stroke-miterlimit="10"/></g><g transform="translate(-70,-46) scale(1,1)"><g><path fill="none" stroke="none"/><text fill="#000000" stroke="none" font-family="Arial" font-size="20px" font-style="normal" font-weight="normal" text-decoration="none" x="918.5" y="892.5">«include»</text></g></g><g transform="translate(-70,-46) scale(1,1)"><path fill="none" stroke="#000000" d="M 1356 385 L 1352 800 L 1305 879" stroke-miterlimit="10" stroke-dasharray="3"/></g><g transform="translate(-70,-46) scale(1,1)"><path fill="none" stroke="#000000" d="M 1306.5784126293388 868.1138338442065 L 1305 879 L 1313.813788183601 872.4184243638309" stroke-miterlimit="10"/></g><g transform="translate(-70,-46) scale(1,1)"><g><path fill="none" stroke="none"/><text fill="#000000" stroke="none" font-family="Arial" font-size="20px" font-style="normal" font-weight="normal" text-decoration="none" x="1263.5" y="401.5">«include»</text></g></g><g transform="translate(-70,-46) scale(1,1)"><path fill="none" stroke="#000000" d="M 242 705 L 262 879" stroke-miterlimit="10"/></g><g transform="translate(-70,-46) scale(1,1)"><path fill="none" stroke="#000000" d="M 256.6575346456811 869.3844883683757 L 262 879 L 265.0214999990066 868.4231130404072" stroke-miterlimit="10"/></g><g transform="translate(-70,-46) scale(1,1)"><path fill="none" stroke="#000000" d="M 297 705 L 423 879" stroke-miterlimit="10"/></g><g transform="translate(-70,-46) scale(1,1)"><path fill="none" stroke="#000000" d="M 413.630025736314 873.2377450335947 L 423 879 L 420.4489572202752 868.2998980969331" stroke-miterlimit="10"/></g><g transform="translate(-70,-46) scale(1,1)"><path fill="none" stroke="#000000" d="M 321 678 L 623 888" stroke-miterlimit="10"/></g><g transform="translate(-70,-46) scale(1,1)"><path fill="none" stroke="#000000" d="M 612.2530458019174 885.654157834739 L 623 888 L 617.059516712084 878.7419949067852" stroke-miterlimit="10"/></g><g transform="translate(-70,-46) scale(1,1)"><path fill="none" stroke="#000000" d="M 321 650 L 703 795" stroke-miterlimit="10"/></g><g transform="translate(-70,-46) scale(1,1)"><path fill="none" stroke="#000000" d="M 692.0049226495 795.3290502340423 L 703 795 L 694.9926325939485 787.4579798976332" stroke-miterlimit="10"/></g><g transform="translate(-70,-46) scale(1,1)"><path fill="none" stroke="#000000" d="M 321 577 L 751 386" stroke-miterlimit="10"/></g><g transform="translate(-70,-46) scale(1,1)"><path fill="none" stroke="#000000" d="M 743.4211568170094 393.9725238166868 L 751 386 L 740.0035229378075 386.27837424570845" stroke-miterlimit="10"/></g><g transform="translate(-70,-46) scale(1,1)"><path fill="none" stroke="#000000" d="M 711 183 L 711 145" stroke-miterlimit="10"/></g><g transform="translate(-70,-46) scale(1,1)"><path fill="none" stroke="#000000" d="M 715.209517756016 155.16267485762415 L 711 145 L 706.790482243984 155.16267485762415" stroke-miterlimit="10"/></g><g transform="translate(-70,-46) scale(1,1)"><path fill="none" stroke="#000000" d="M 809 234 L 1391 237" stroke-miterlimit="10"/></g><g transform="translate(-70,-46) scale(1,1)"><path fill="none" stroke="#000000" d="M 1380.8157618954995 241.1570776070263 L 1391 237 L 1380.8591584092421 232.7381539409363" stroke-miterlimit="10"/></g><g transform="translate(-70,-46) scale(1,1)"><path fill="none" stroke="#000000" d="M 1460 275 L 1456 800 L 1349 879" stroke-miterlimit="10" stroke-dasharray="3"/></g><g transform="translate(-70,-46) scale(1,1)"><path fill="none" stroke="#000000" d="M 1354.67543587306 869.5771857892249 L 1349 879 L 1359.67607501833 876.3502033657301" stroke-miterlimit="10"/></g><g transform="translate(-70,-46) scale(1,1)"><g><path fill="none" stroke="none"/><text fill="#000000" stroke="none" font-family="Arial" font-size="20px" font-style="normal" font-weight="normal" text-decoration="none" x="1406.5" y="857.5">«include»</text></g></g><g transform="translate(-70,-46) scale(1,1)"><path fill="#C0C0C0" stroke="none" d="M 959 747 C 959 713.862912 993.0263552 687 1035 687 C 1076.9736448 687 1111 713.862912 1111 747 C 1111 780.137088 1076.9736448 807 1035 807 C 993.0263552 807 959 780.137088 959 747 Z" opacity="0.2"/></g><g transform="translate(-70,-46) scale(1,1)"><path fill="#ffffff" stroke="none" d="M 952 740 C 952 706.862912 986.0263552 680 1028 680 C 1069.9736448 680 1104 706.862912 1104 740 C 1104 773.137088 1069.9736448 800 1028 800 C 986.0263552 800 952 773.137088 952 740 Z"/></g><g transform="translate(-70,-46) scale(1,1)"><path fill="none" stroke="#000000" d="M 952 740 C 952 706.862912 986.0263552 680 1028 680 C 1069.9736448 680 1104 706.862912 1104 740 C 1104 773.137088 1069.9736448 800 1028 800 C 986.0263552 800 952 773.137088 952 740 Z" stroke-miterlimit="10"/></g><g transform="translate(-70,-46) scale(1,1)"><g><path fill="none" stroke="none"/><text fill="#000000" stroke="none" font-family="Arial" font-size="20px" font-style="normal" font-weight="bold" text-decoration="none" x="990.763671875" y="740.5">Reserve</text><text fill="#000000" stroke="none" font-family="Arial" font-size="20px" font-style="normal" font-weight="bold" text-decoration="none" x="983.5322265625" y="760.5">or release</text></g></g><g transform="translate(-70,-46) scale(1,1)"><path fill="none" stroke="#000000" d="M 1104 801 L 1200 879" stroke-miterlimit="10" stroke-dasharray="3"/></g><g transform="translate(-70,-46) scale(1,1)"><path fill="none" stroke="#000000" d="M 1189.4581149122205 875.8585578477313 L 1200 879 L 1194.7670966165163 869.3244265193672" stroke-miterlimit="10"/></g><g transform="translate(-70,-46) scale(1,1)"><g><path fill="none" stroke="none"/><text fill="#000000" stroke="none" font-family="Arial" font-size="20px" font-style="normal" font-weight="normal" text-decoration="none" x="1103.5" y="797.5">«include»</text></g></g><g transform="translate(-70,-46) scale(1,1)"><path fill="#C0C0C0" stroke="none" d="M 1103 583 C 1103 560.908608 1135.2354944 543 1175 543 C 1214.7645056 543 1247 560.908608 1247 583 C 1247 605.091392 1214.7645056 623 1175 623 C 1135.2354944 623 1103 605.091392 1103 583 Z" opacity="0.2"/></g><g transform="translate(-70,-46) scale(1,1)"><path fill="#ffffff" stroke="none" d="M 1096 576 C 1096 553.908608 1128.2354944 536 1168 536 C 1207.7645056 536 1240 553.908608 1240 576 C 1240 598.091392 1207.7645056 616 1168 616 C 1128.2354944 616 1096 598.091392 1096 576 Z"/></g><g transform="translate(-70,-46) scale(1,1)"><path fill="none" stroke="#000000" d="M 1096 576 C 1096 553.908608 1128.2354944 536 1168 536 C 1207.7645056 536 1240 553.908608 1240 576 C 1240 598.091392 1207.7645056 616 1168 616 C 1128.2354944 616 1096 598.091392 1096 576 Z" stroke-miterlimit="10"/></g><g transform="translate(-70,-46) scale(1,1)"><g><path fill="none" stroke="none"/><text fill="#000000" stroke="none" font-family="Arial" font-size="20px" font-style="normal" font-weight="bold" text-decoration="none" x="1138.546875" y="586.5">Modify</text></g></g><g transform="translate(-70,-46) scale(1,1)"><path fill="none" stroke="#000000" d="M 893 617 L 961 679" stroke-miterlimit="10"/></g><g transform="translate(-70,-46) scale(1,1)"><path fill="none" stroke="#000000" d="M 950.6540531970554 675.2635063561354 L 961 679 L 956.3264108512797 669.0422108644055" stroke-miterlimit="10"/></g><g transform="translate(-70,-46) scale(1,1)"><path fill="none" stroke="#000000" d="M 937 576 L 1095 576" stroke-miterlimit="10"/></g><g transform="translate(-70,-46) scale(1,1)"><path fill="none" stroke="#000000" d="M 1084.837325142376 580.209517756016 L 1095 576 L 1084.837325142376 571.790482243984" stroke-miterlimit="10"/></g><g transform="translate(-70,-46) scale(1,1)"><path fill="none" stroke="#000000" d="M 921 349 L 1287 351" stroke-miterlimit="10"/></g><g transform="translate(-70,-46) scale(1,1)"><path fill="none" stroke="#000000" d="M 1276.8144743846774 355.1539219948873 L 1287 351 L 1276.8604793563513 346.7350121785609" stroke-miterlimit="10"/></g><g transform="translate(-70,-46) scale(1,1)"><path fill="none" stroke="#000000" d="M 1180 617 L 1255 879" stroke-miterlimit="10" stroke-dasharray="3"/></g><g transform="translate(-70,-46) scale(1,1)"><path fill="none" stroke="#000000" d="M 1248.1562048949104 870.3882366173036 L 1255 879 L 1256.2501423580184 868.0712697862612" stroke-miterlimit="10"/></g><g transform="translate(-70,-46) scale(1,1)"><g><path fill="none" stroke="none"/><text fill="#000000" stroke="none" font-family="Arial" font-size="20px" font-style="normal" font-weight="normal" text-decoration="none" x="1215.5" y="714.5">«include»</text></g></g><g transform="translate(-70,-46) scale(1,1)"><path fill="none" stroke="#000000" d="M 497 343 L 615 283" stroke-miterlimit="10" stroke-dasharray="3"/></g><g transform="translate(-70,-46) scale(1,1)"><path fill="none" stroke="#000000" d="M 607.8490926808487 291.3585001353657 L 615 283 L 604.0331928167259 283.8538970692574" stroke-miterlimit="10"/></g><g transform="translate(-70,-46) scale(1,1)"><g><path fill="none" stroke="none"/><text fill="#000000" stroke="none" font-family="Arial" font-size="20px" font-style="normal" font-weight="normal" text-decoration="none" x="544.5" y="345.5">«include»</text></g></g><g transform="translate(-70,-46) scale(1,1)"><path fill="none" stroke="#000000" d="M 321 236 L 615 234" stroke-miterlimit="10" stroke-dasharray="3"/></g><g transform="translate(-70,-46) scale(1,1)"><path fill="none" stroke="#000000" d="M 604.8661957959747 238.27855260041045 L 615 234 L 604.8089247707034 229.85971188553052" stroke-miterlimit="10"/></g><g transform="translate(-70,-46) scale(1,1)"><g><path fill="none" stroke="none"/><text fill="#000000" stroke="none" font-family="Arial" font-size="20px" font-style="normal" font-weight="normal" text-decoration="none" x="419.5" y="225.5">«include»</text></g></g><g transform="translate(-70,-46) scale(1,1)"><path fill="none" stroke="#000000" d="M 304 527 L 387 425" stroke-miterlimit="10"/></g><g transform="translate(-70,-46) scale(1,1)"><path fill="none" stroke="#000000" d="M 383.85078158550823 435.5395646673772 L 387 425 L 377.3205686566188 430.22576395073185" stroke-miterlimit="10"/></g><g transform="translate(-70,-46) scale(1,1)"><path fill="none" stroke="#000000" d="M 234 527 L 239 273" stroke-miterlimit="10"/></g><g transform="translate(-70,-46) scale(1,1)"><path fill="none" stroke="#000000" d="M 243.00868849161665 283.2435548798833 L 239 273 L 234.5912836970646 283.0778579351086" stroke-miterlimit="10"/></g><g transform="translate(-70,-46) scale(1,1)"><path fill="none" stroke="#000000" d="M 321 610 L 759 582" stroke-miterlimit="10"/></g><g transform="translate(-70,-46) scale(1,1)"><path fill="none" stroke="#000000" d="M 749.1265807871931 586.8492878908328 L 759 582 L 748.5894739695931 578.4474026726604" stroke-miterlimit="10"/></g><g transform="translate(-70,-46) scale(1,1)"><path fill="none" stroke="#000000" d="M 838 393 L 846 535" stroke-miterlimit="10" stroke-dasharray="3"/></g><g transform="translate(-70,-46) scale(1,1)"><path fill="none" stroke="#000000" d="M 841.2255082337377 525.0901953412848 L 846 535 L 849.6312145697682 524.616634420945" stroke-miterlimit="10"/></g><g transform="translate(-70,-46) scale(1,1)"><g><path fill="none" stroke="none"/><text fill="#000000" stroke="none" font-family="Arial" font-size="20px" font-style="normal" font-weight="normal" text-decoration="none" x="748.5" y="454.5">«include»</text></g></g><g transform="translate(-70,-46) scale(1,1)"><path fill="#C0C0C0" stroke="none" d="M 1039 467 C 1039 442.6994688 1089.5918176 423 1152 423 C 1214.4081824 423 1265 442.6994688 1265 467 C 1265 491.3005312 1214.4081824 511 1152 511 C 1089.5918176 511 1039 491.3005312 1039 467 Z" opacity="0.2"/></g><g transform="translate(-70,-46) scale(1,1)"><path fill="#ffffff" stroke="none" d="M 1032 460 C 1032 435.6994688 1082.5918176 416 1145 416 C 1207.4081824 416 1258 435.6994688 1258 460 C 1258 484.3005312 1207.4081824 504 1145 504 C 1082.5918176 504 1032 484.3005312 1032 460 Z"/></g><g transform="translate(-70,-46) scale(1,1)"><path fill="none" stroke="#000000" d="M 1032 460 C 1032 435.6994688 1082.5918176 416 1145 416 C 1207.4081824 416 1258 435.6994688 1258 460 C 1258 484.3005312 1207.4081824 504 1145 504 C 1082.5918176 504 1032 484.3005312 1032 460 Z" stroke-miterlimit="10"/></g><g transform="translate(-70,-46) scale(1,1)"><g><path fill="none" stroke="none"/><text fill="#000000" stroke="none" font-family="Arial" font-size="20px" font-style="normal" font-weight="bold" text-decoration="none" x="1075.5126953125" y="470.5">Start navigation</text></g></g><g transform="translate(-70,-46) scale(1,1)"><path fill="none" stroke="#000000" d="M 921 379 L 1031 419" stroke-miterlimit="10" stroke-dasharray="3"/></g><g transform="translate(-70,-46) scale(1,1)"><path fill="none" stroke="#000000" d="M 1020.0106115116947 419.4830534681629 L 1031 419 L 1022.8877584958122 411.57089926183966" stroke-miterlimit="10"/></g><g transform="translate(-70,-46) scale(1,1)"><g><path fill="none" stroke="none"/><text fill="#000000" stroke="none" font-family="Arial" font-size="20px" font-style="normal" font-weight="normal" text-decoration="none" x="926.5" y="437.5">«include»</text></g></g></g></svg>